<mxfile host="Electron" agent="Mozilla/5.0 (Windows NT 10.0; Win64; x64) AppleWebKit/537.36 (KHTML, like Gecko) draw.io/21.6.8 Chrome/114.0.5735.289 Electron/25.5.0 Safari/537.36" modified="2025-09-29T17:31:33.748Z" etag="jaSsHhhu-2HyzdXSOTGx" version="21.6.8" type="device">
  <diagram name="Страница — 1" id="xao-rZnHwSvZ_5HWBIvc">
    <mxGraphModel dx="976" dy="673" grid="1" gridSize="10" guides="1" tooltips="1" connect="1" arrows="1" fold="1" page="1" pageScale="1" pageWidth="827" pageHeight="1169" math="0" shadow="0">
      <root>
        <mxCell id="0" />
        <mxCell id="1" parent="0" />
        <mxCell id="AfcARlq8VIX9DjHPglkM-13" style="edgeStyle=orthogonalEdgeStyle;rounded=0;orthogonalLoop=1;jettySize=auto;html=1;exitDx=0;exitDy=0;entryX=0;entryY=0.5;entryDx=0;entryDy=0;" parent="1" source="AfcARlq8VIX9DjHPglkM-54" target="AfcARlq8VIX9DjHPglkM-12" edge="1">
          <mxGeometry relative="1" as="geometry" />
        </mxCell>
        <mxCell id="AfcARlq8VIX9DjHPglkM-17" style="edgeStyle=orthogonalEdgeStyle;rounded=0;orthogonalLoop=1;jettySize=auto;html=1;exitX=0.5;exitY=0;exitDx=0;exitDy=0;startArrow=classic;startFill=1;endArrow=none;endFill=0;jumpStyle=none;" parent="1" source="AfcARlq8VIX9DjHPglkM-1" target="AfcARlq8VIX9DjHPglkM-30" edge="1">
          <mxGeometry relative="1" as="geometry">
            <mxPoint x="360" y="80" as="targetPoint" />
            <Array as="points">
              <mxPoint x="240" y="160" />
            </Array>
          </mxGeometry>
        </mxCell>
        <mxCell id="AfcARlq8VIX9DjHPglkM-1" value="Импорт данных" style="whiteSpace=wrap;html=1;aspect=fixed;" parent="1" vertex="1">
          <mxGeometry x="200" y="240" width="80" height="80" as="geometry" />
        </mxCell>
        <mxCell id="AfcARlq8VIX9DjHPglkM-7" value="" style="endArrow=classic;html=1;rounded=0;entryX=0;entryY=0.25;entryDx=0;entryDy=0;" parent="1" target="AfcARlq8VIX9DjHPglkM-1" edge="1">
          <mxGeometry width="50" height="50" relative="1" as="geometry">
            <mxPoint x="80" y="260" as="sourcePoint" />
            <mxPoint x="140" y="240" as="targetPoint" />
          </mxGeometry>
        </mxCell>
        <mxCell id="AfcARlq8VIX9DjHPglkM-22" value="Аналитические&lt;div&gt;данные&lt;/div&gt;" style="edgeLabel;html=1;align=center;verticalAlign=middle;resizable=0;points=[];" parent="AfcARlq8VIX9DjHPglkM-7" vertex="1" connectable="0">
          <mxGeometry x="-0.0761" y="-1" relative="1" as="geometry">
            <mxPoint x="2" y="-21" as="offset" />
          </mxGeometry>
        </mxCell>
        <mxCell id="AfcARlq8VIX9DjHPglkM-8" value="" style="endArrow=classic;html=1;rounded=0;entryX=0;entryY=0.75;entryDx=0;entryDy=0;" parent="1" target="AfcARlq8VIX9DjHPglkM-27" edge="1">
          <mxGeometry width="50" height="50" relative="1" as="geometry">
            <mxPoint x="180" y="430" as="sourcePoint" />
            <mxPoint x="180" y="290" as="targetPoint" />
          </mxGeometry>
        </mxCell>
        <mxCell id="AfcARlq8VIX9DjHPglkM-23" value="Данные от&amp;nbsp;&lt;div&gt;пользователя&lt;/div&gt;" style="edgeLabel;html=1;align=center;verticalAlign=middle;resizable=0;points=[];" parent="AfcARlq8VIX9DjHPglkM-8" vertex="1" connectable="0">
          <mxGeometry x="0.0115" relative="1" as="geometry">
            <mxPoint x="-60" y="20" as="offset" />
          </mxGeometry>
        </mxCell>
        <mxCell id="AfcARlq8VIX9DjHPglkM-49" style="edgeStyle=orthogonalEdgeStyle;rounded=0;orthogonalLoop=1;jettySize=auto;html=1;entryX=0;entryY=0.25;entryDx=0;entryDy=0;exitX=1;exitY=0.75;exitDx=0;exitDy=0;" parent="1" source="AfcARlq8VIX9DjHPglkM-12" target="AfcARlq8VIX9DjHPglkM-27" edge="1">
          <mxGeometry relative="1" as="geometry">
            <Array as="points">
              <mxPoint x="570" y="300" />
              <mxPoint x="570" y="340" />
              <mxPoint x="270" y="340" />
              <mxPoint x="270" y="390" />
            </Array>
          </mxGeometry>
        </mxCell>
        <mxCell id="AfcARlq8VIX9DjHPglkM-50" value="Недопустимые&lt;div&gt;данные&lt;/div&gt;" style="edgeLabel;html=1;align=center;verticalAlign=middle;resizable=0;points=[];" parent="AfcARlq8VIX9DjHPglkM-49" vertex="1" connectable="0">
          <mxGeometry x="-0.8895" y="1" relative="1" as="geometry">
            <mxPoint x="-35" y="61" as="offset" />
          </mxGeometry>
        </mxCell>
        <mxCell id="AfcARlq8VIX9DjHPglkM-65" style="edgeStyle=orthogonalEdgeStyle;rounded=0;orthogonalLoop=1;jettySize=auto;html=1;exitX=1;exitY=0.25;exitDx=0;exitDy=0;entryX=0;entryY=0.25;entryDx=0;entryDy=0;jumpStyle=none;" parent="1" source="AfcARlq8VIX9DjHPglkM-12" target="AfcARlq8VIX9DjHPglkM-62" edge="1">
          <mxGeometry relative="1" as="geometry">
            <Array as="points">
              <mxPoint x="610" y="260" />
              <mxPoint x="610" y="500" />
            </Array>
          </mxGeometry>
        </mxCell>
        <mxCell id="AfcARlq8VIX9DjHPglkM-66" value="Данные в&lt;br&gt;ОБД" style="edgeLabel;html=1;align=center;verticalAlign=middle;resizable=0;points=[];" parent="AfcARlq8VIX9DjHPglkM-65" vertex="1" connectable="0">
          <mxGeometry x="-0.7571" y="-2" relative="1" as="geometry">
            <mxPoint y="-22" as="offset" />
          </mxGeometry>
        </mxCell>
        <mxCell id="AfcARlq8VIX9DjHPglkM-12" value="Верификация" style="whiteSpace=wrap;html=1;aspect=fixed;" parent="1" vertex="1">
          <mxGeometry x="440" y="240" width="80" height="80" as="geometry" />
        </mxCell>
        <mxCell id="AfcARlq8VIX9DjHPglkM-55" style="edgeStyle=orthogonalEdgeStyle;rounded=0;orthogonalLoop=1;jettySize=auto;html=1;jumpStyle=arc;endArrow=none;endFill=0;" parent="1" source="AfcARlq8VIX9DjHPglkM-27" target="AfcARlq8VIX9DjHPglkM-54" edge="1">
          <mxGeometry relative="1" as="geometry" />
        </mxCell>
        <mxCell id="AfcARlq8VIX9DjHPglkM-27" value="Редактор данных" style="whiteSpace=wrap;html=1;aspect=fixed;" parent="1" vertex="1">
          <mxGeometry x="290" y="370" width="80" height="80" as="geometry" />
        </mxCell>
        <mxCell id="AfcARlq8VIX9DjHPglkM-31" style="edgeStyle=orthogonalEdgeStyle;rounded=0;orthogonalLoop=1;jettySize=auto;html=1;endArrow=none;endFill=0;" parent="1" source="AfcARlq8VIX9DjHPglkM-30" edge="1">
          <mxGeometry relative="1" as="geometry">
            <mxPoint x="330" y="80" as="targetPoint" />
            <Array as="points">
              <mxPoint x="330" y="80" />
            </Array>
          </mxGeometry>
        </mxCell>
        <mxCell id="AfcARlq8VIX9DjHPglkM-34" value="Инструкции" style="edgeLabel;html=1;align=center;verticalAlign=middle;resizable=0;points=[];" parent="AfcARlq8VIX9DjHPglkM-31" vertex="1" connectable="0">
          <mxGeometry x="0.0561" y="-1" relative="1" as="geometry">
            <mxPoint x="-41" y="12" as="offset" />
          </mxGeometry>
        </mxCell>
        <mxCell id="AfcARlq8VIX9DjHPglkM-33" style="edgeStyle=orthogonalEdgeStyle;rounded=0;orthogonalLoop=1;jettySize=auto;html=1;entryX=0.5;entryY=0;entryDx=0;entryDy=0;jumpStyle=arc;" parent="1" source="AfcARlq8VIX9DjHPglkM-30" target="AfcARlq8VIX9DjHPglkM-27" edge="1">
          <mxGeometry relative="1" as="geometry">
            <Array as="points">
              <mxPoint x="330" y="170" />
              <mxPoint x="330" y="170" />
            </Array>
          </mxGeometry>
        </mxCell>
        <mxCell id="AfcARlq8VIX9DjHPglkM-30" value="" style="shape=waypoint;sketch=0;fillStyle=solid;size=6;pointerEvents=1;points=[];fillColor=none;resizable=0;rotatable=0;perimeter=centerPerimeter;snapToPoint=1;" parent="1" vertex="1">
          <mxGeometry x="320" y="150" width="20" height="20" as="geometry" />
        </mxCell>
        <mxCell id="AfcARlq8VIX9DjHPglkM-42" style="edgeStyle=orthogonalEdgeStyle;rounded=0;orthogonalLoop=1;jettySize=auto;html=1;entryX=0.5;entryY=1;entryDx=0;entryDy=0;" parent="1" source="AfcARlq8VIX9DjHPglkM-41" target="AfcARlq8VIX9DjHPglkM-27" edge="1">
          <mxGeometry relative="1" as="geometry" />
        </mxCell>
        <mxCell id="AfcARlq8VIX9DjHPglkM-43" style="edgeStyle=orthogonalEdgeStyle;rounded=0;orthogonalLoop=1;jettySize=auto;html=1;entryX=0.5;entryY=1;entryDx=0;entryDy=0;jumpStyle=arc;" parent="1" source="AfcARlq8VIX9DjHPglkM-41" target="AfcARlq8VIX9DjHPglkM-1" edge="1">
          <mxGeometry relative="1" as="geometry">
            <Array as="points">
              <mxPoint x="330" y="500" />
              <mxPoint x="240" y="500" />
            </Array>
          </mxGeometry>
        </mxCell>
        <mxCell id="AfcARlq8VIX9DjHPglkM-46" style="edgeStyle=orthogonalEdgeStyle;rounded=0;orthogonalLoop=1;jettySize=auto;html=1;endArrow=none;endFill=0;" parent="1" source="AfcARlq8VIX9DjHPglkM-41" edge="1">
          <mxGeometry relative="1" as="geometry">
            <mxPoint x="330" y="580" as="targetPoint" />
          </mxGeometry>
        </mxCell>
        <mxCell id="AfcARlq8VIX9DjHPglkM-47" value="Технический&lt;div&gt;персонал&lt;/div&gt;" style="edgeLabel;html=1;align=center;verticalAlign=middle;resizable=0;points=[];" parent="AfcARlq8VIX9DjHPglkM-46" vertex="1" connectable="0">
          <mxGeometry x="-0.0646" y="2" relative="1" as="geometry">
            <mxPoint x="-52" as="offset" />
          </mxGeometry>
        </mxCell>
        <mxCell id="AfcARlq8VIX9DjHPglkM-41" value="" style="shape=waypoint;sketch=0;fillStyle=solid;size=6;pointerEvents=1;points=[];fillColor=none;resizable=0;rotatable=0;perimeter=centerPerimeter;snapToPoint=1;" parent="1" vertex="1">
          <mxGeometry x="320" y="490" width="20" height="20" as="geometry" />
        </mxCell>
        <mxCell id="AfcARlq8VIX9DjHPglkM-52" value="" style="edgeStyle=orthogonalEdgeStyle;rounded=0;orthogonalLoop=1;jettySize=auto;html=1;exitX=1;exitY=0.5;exitDx=0;exitDy=0;entryDx=0;entryDy=0;endArrow=none;endFill=0;jumpStyle=arc;" parent="1" source="AfcARlq8VIX9DjHPglkM-1" target="AfcARlq8VIX9DjHPglkM-54" edge="1">
          <mxGeometry relative="1" as="geometry">
            <mxPoint x="280" y="280" as="sourcePoint" />
            <mxPoint x="440" y="280" as="targetPoint" />
          </mxGeometry>
        </mxCell>
        <mxCell id="AfcARlq8VIX9DjHPglkM-53" value="Данные для&amp;nbsp;&lt;div&gt;верификации&lt;/div&gt;" style="edgeLabel;html=1;align=center;verticalAlign=middle;resizable=0;points=[];" parent="AfcARlq8VIX9DjHPglkM-52" vertex="1" connectable="0">
          <mxGeometry x="-0.0005" y="-2" relative="1" as="geometry">
            <mxPoint x="28" y="-30" as="offset" />
          </mxGeometry>
        </mxCell>
        <mxCell id="AfcARlq8VIX9DjHPglkM-54" value="" style="shape=waypoint;sketch=0;fillStyle=solid;size=6;pointerEvents=1;points=[];fillColor=none;resizable=0;rotatable=0;perimeter=centerPerimeter;snapToPoint=1;" parent="1" vertex="1">
          <mxGeometry x="394" y="270" width="20" height="20" as="geometry" />
        </mxCell>
        <mxCell id="AfcARlq8VIX9DjHPglkM-57" style="edgeStyle=orthogonalEdgeStyle;rounded=0;orthogonalLoop=1;jettySize=auto;html=1;startArrow=none;startFill=0;endArrow=none;endFill=0;" parent="1" source="AfcARlq8VIX9DjHPglkM-59" edge="1">
          <mxGeometry relative="1" as="geometry">
            <mxPoint x="370" y="520" as="targetPoint" />
          </mxGeometry>
        </mxCell>
        <mxCell id="AfcARlq8VIX9DjHPglkM-60" value="Запрос к&amp;nbsp;&lt;div&gt;данным&lt;/div&gt;" style="edgeLabel;html=1;align=center;verticalAlign=middle;resizable=0;points=[];" parent="AfcARlq8VIX9DjHPglkM-57" vertex="1" connectable="0">
          <mxGeometry x="0.209" y="2" relative="1" as="geometry">
            <mxPoint x="17" y="-22" as="offset" />
          </mxGeometry>
        </mxCell>
        <mxCell id="AfcARlq8VIX9DjHPglkM-63" style="edgeStyle=orthogonalEdgeStyle;rounded=0;orthogonalLoop=1;jettySize=auto;html=1;entryX=0.5;entryY=0;entryDx=0;entryDy=0;jumpStyle=arc;" parent="1" source="AfcARlq8VIX9DjHPglkM-56" target="AfcARlq8VIX9DjHPglkM-62" edge="1">
          <mxGeometry relative="1" as="geometry" />
        </mxCell>
        <mxCell id="AfcARlq8VIX9DjHPglkM-64" value="Авторизация&amp;nbsp;&lt;div&gt;проведена&lt;/div&gt;" style="edgeLabel;html=1;align=center;verticalAlign=middle;resizable=0;points=[];" parent="AfcARlq8VIX9DjHPglkM-63" vertex="1" connectable="0">
          <mxGeometry x="-0.7801" y="2" relative="1" as="geometry">
            <mxPoint x="107" y="-78" as="offset" />
          </mxGeometry>
        </mxCell>
        <mxCell id="AfcARlq8VIX9DjHPglkM-67" style="edgeStyle=orthogonalEdgeStyle;rounded=0;orthogonalLoop=1;jettySize=auto;html=1;startArrow=classic;startFill=1;endArrow=none;endFill=0;" parent="1" source="AfcARlq8VIX9DjHPglkM-56" edge="1">
          <mxGeometry relative="1" as="geometry">
            <mxPoint x="500" y="650" as="targetPoint" />
          </mxGeometry>
        </mxCell>
        <mxCell id="AfcARlq8VIX9DjHPglkM-68" value="Администратор" style="edgeLabel;html=1;align=center;verticalAlign=middle;resizable=0;points=[];" parent="AfcARlq8VIX9DjHPglkM-67" vertex="1" connectable="0">
          <mxGeometry x="0.1595" y="-2" relative="1" as="geometry">
            <mxPoint x="2" y="48" as="offset" />
          </mxGeometry>
        </mxCell>
        <mxCell id="AfcARlq8VIX9DjHPglkM-56" value="Авторизация" style="whiteSpace=wrap;html=1;aspect=fixed;" parent="1" vertex="1">
          <mxGeometry x="460" y="480" width="80" height="80" as="geometry" />
        </mxCell>
        <mxCell id="AfcARlq8VIX9DjHPglkM-58" value="" style="edgeStyle=orthogonalEdgeStyle;rounded=0;orthogonalLoop=1;jettySize=auto;html=1;startArrow=classic;startFill=1;endArrow=none;endFill=0;" parent="1" source="AfcARlq8VIX9DjHPglkM-56" target="AfcARlq8VIX9DjHPglkM-59" edge="1">
          <mxGeometry relative="1" as="geometry">
            <mxPoint x="370" y="520" as="targetPoint" />
            <mxPoint x="450" y="520" as="sourcePoint" />
          </mxGeometry>
        </mxCell>
        <mxCell id="-b8zlTEoFbIBelt3m8GE-1" style="edgeStyle=orthogonalEdgeStyle;rounded=0;orthogonalLoop=1;jettySize=auto;html=1;entryX=0;entryY=0.75;entryDx=0;entryDy=0;jumpStyle=arc;" parent="1" source="AfcARlq8VIX9DjHPglkM-59" target="AfcARlq8VIX9DjHPglkM-62" edge="1">
          <mxGeometry relative="1" as="geometry">
            <Array as="points">
              <mxPoint x="414" y="590" />
              <mxPoint x="610" y="590" />
              <mxPoint x="610" y="540" />
            </Array>
          </mxGeometry>
        </mxCell>
        <mxCell id="AfcARlq8VIX9DjHPglkM-59" value="" style="shape=waypoint;sketch=0;fillStyle=solid;size=6;pointerEvents=1;points=[];fillColor=none;resizable=0;rotatable=0;perimeter=centerPerimeter;snapToPoint=1;" parent="1" vertex="1">
          <mxGeometry x="404" y="510" width="20" height="20" as="geometry" />
        </mxCell>
        <mxCell id="-b8zlTEoFbIBelt3m8GE-2" style="edgeStyle=orthogonalEdgeStyle;rounded=0;orthogonalLoop=1;jettySize=auto;html=1;" parent="1" source="AfcARlq8VIX9DjHPglkM-62" edge="1">
          <mxGeometry relative="1" as="geometry">
            <mxPoint x="820" y="520" as="targetPoint" />
          </mxGeometry>
        </mxCell>
        <mxCell id="-b8zlTEoFbIBelt3m8GE-4" value="Информационный&lt;div&gt;массив&amp;nbsp;&lt;/div&gt;" style="edgeLabel;html=1;align=center;verticalAlign=middle;resizable=0;points=[];" parent="-b8zlTEoFbIBelt3m8GE-2" vertex="1" connectable="0">
          <mxGeometry x="-0.0046" y="1" relative="1" as="geometry">
            <mxPoint x="1" y="-19" as="offset" />
          </mxGeometry>
        </mxCell>
        <mxCell id="AfcARlq8VIX9DjHPglkM-62" value="Обработка запроса" style="whiteSpace=wrap;html=1;aspect=fixed;" parent="1" vertex="1">
          <mxGeometry x="630" y="480" width="80" height="80" as="geometry" />
        </mxCell>
        <mxCell id="uh68UWqJaUCQt9T-QTS5-2" style="edgeStyle=orthogonalEdgeStyle;rounded=0;orthogonalLoop=1;jettySize=auto;html=1;exitX=0;exitY=0.25;exitDx=0;exitDy=0;startArrow=classic;startFill=1;endArrow=none;endFill=0;" parent="1" source="uh68UWqJaUCQt9T-QTS5-1" edge="1">
          <mxGeometry relative="1" as="geometry">
            <mxPoint x="310" y="810.25" as="targetPoint" />
          </mxGeometry>
        </mxCell>
        <mxCell id="uh68UWqJaUCQt9T-QTS5-5" value="Аналитические&lt;br&gt;данные" style="edgeLabel;html=1;align=center;verticalAlign=middle;resizable=0;points=[];" parent="uh68UWqJaUCQt9T-QTS5-2" vertex="1" connectable="0">
          <mxGeometry x="0.092" relative="1" as="geometry">
            <mxPoint x="2" y="-21" as="offset" />
          </mxGeometry>
        </mxCell>
        <mxCell id="uh68UWqJaUCQt9T-QTS5-3" style="edgeStyle=orthogonalEdgeStyle;rounded=0;orthogonalLoop=1;jettySize=auto;html=1;exitX=0;exitY=0.75;exitDx=0;exitDy=0;endArrow=none;endFill=0;startArrow=classic;startFill=1;" parent="1" source="uh68UWqJaUCQt9T-QTS5-1" edge="1">
          <mxGeometry relative="1" as="geometry">
            <mxPoint x="310" y="889.8888888888887" as="targetPoint" />
          </mxGeometry>
        </mxCell>
        <mxCell id="uh68UWqJaUCQt9T-QTS5-6" value="Данные от&lt;br&gt;пользователя" style="edgeLabel;html=1;align=center;verticalAlign=middle;resizable=0;points=[];" parent="uh68UWqJaUCQt9T-QTS5-3" vertex="1" connectable="0">
          <mxGeometry x="-0.0149" relative="1" as="geometry">
            <mxPoint y="-20" as="offset" />
          </mxGeometry>
        </mxCell>
        <mxCell id="uh68UWqJaUCQt9T-QTS5-7" style="edgeStyle=orthogonalEdgeStyle;rounded=0;orthogonalLoop=1;jettySize=auto;html=1;exitX=0.5;exitY=0;exitDx=0;exitDy=0;startArrow=classic;startFill=1;endArrow=none;endFill=0;" parent="1" source="uh68UWqJaUCQt9T-QTS5-1" edge="1">
          <mxGeometry relative="1" as="geometry">
            <mxPoint x="483.6666666666665" y="690" as="targetPoint" />
          </mxGeometry>
        </mxCell>
        <mxCell id="uh68UWqJaUCQt9T-QTS5-16" value="Инструкции" style="edgeLabel;html=1;align=center;verticalAlign=middle;resizable=0;points=[];" parent="uh68UWqJaUCQt9T-QTS5-7" vertex="1" connectable="0">
          <mxGeometry x="0.0152" y="-1" relative="1" as="geometry">
            <mxPoint x="-45" as="offset" />
          </mxGeometry>
        </mxCell>
        <mxCell id="uh68UWqJaUCQt9T-QTS5-8" style="edgeStyle=orthogonalEdgeStyle;rounded=0;orthogonalLoop=1;jettySize=auto;html=1;exitX=0.25;exitY=1;exitDx=0;exitDy=0;startArrow=classic;startFill=1;endArrow=none;endFill=0;" parent="1" source="uh68UWqJaUCQt9T-QTS5-1" edge="1">
          <mxGeometry relative="1" as="geometry">
            <mxPoint x="443.6666666666665" y="1010" as="targetPoint" />
          </mxGeometry>
        </mxCell>
        <mxCell id="uh68UWqJaUCQt9T-QTS5-11" value="Технический&lt;br&gt;персонал" style="edgeLabel;html=1;align=center;verticalAlign=middle;resizable=0;points=[];" parent="uh68UWqJaUCQt9T-QTS5-8" vertex="1" connectable="0">
          <mxGeometry x="-0.0105" relative="1" as="geometry">
            <mxPoint x="-40" as="offset" />
          </mxGeometry>
        </mxCell>
        <mxCell id="uh68UWqJaUCQt9T-QTS5-9" style="edgeStyle=orthogonalEdgeStyle;rounded=0;orthogonalLoop=1;jettySize=auto;html=1;exitX=0.75;exitY=1;exitDx=0;exitDy=0;startArrow=classic;startFill=1;endArrow=none;endFill=0;" parent="1" source="uh68UWqJaUCQt9T-QTS5-1" edge="1">
          <mxGeometry relative="1" as="geometry">
            <mxPoint x="523.6666666666665" y="1010" as="targetPoint" />
          </mxGeometry>
        </mxCell>
        <mxCell id="uh68UWqJaUCQt9T-QTS5-12" value="Администратор" style="edgeLabel;html=1;align=center;verticalAlign=middle;resizable=0;points=[];" parent="uh68UWqJaUCQt9T-QTS5-9" vertex="1" connectable="0">
          <mxGeometry x="0.0317" y="-2" relative="1" as="geometry">
            <mxPoint x="48" y="-1" as="offset" />
          </mxGeometry>
        </mxCell>
        <mxCell id="uh68UWqJaUCQt9T-QTS5-14" style="edgeStyle=orthogonalEdgeStyle;rounded=0;orthogonalLoop=1;jettySize=auto;html=1;" parent="1" source="uh68UWqJaUCQt9T-QTS5-1" edge="1">
          <mxGeometry relative="1" as="geometry">
            <mxPoint x="650" y="850" as="targetPoint" />
          </mxGeometry>
        </mxCell>
        <mxCell id="uh68UWqJaUCQt9T-QTS5-15" value="Информационный&lt;br&gt;массив" style="edgeLabel;html=1;align=center;verticalAlign=middle;resizable=0;points=[];" parent="uh68UWqJaUCQt9T-QTS5-14" vertex="1" connectable="0">
          <mxGeometry x="-0.1338" y="2" relative="1" as="geometry">
            <mxPoint x="18" y="-18" as="offset" />
          </mxGeometry>
        </mxCell>
        <mxCell id="uh68UWqJaUCQt9T-QTS5-1" value="ИПС" style="whiteSpace=wrap;html=1;aspect=fixed;" parent="1" vertex="1">
          <mxGeometry x="404" y="770" width="160" height="160" as="geometry" />
        </mxCell>
        <mxCell id="uh68UWqJaUCQt9T-QTS5-18" style="edgeStyle=orthogonalEdgeStyle;rounded=0;orthogonalLoop=1;jettySize=auto;html=1;exitX=0.5;exitY=0;exitDx=0;exitDy=0;startArrow=classic;startFill=1;endArrow=none;endFill=0;jumpStyle=none;" parent="1" source="uh68UWqJaUCQt9T-QTS5-59" edge="1">
          <mxGeometry relative="1" as="geometry">
            <mxPoint x="1000" y="150" as="targetPoint" />
            <Array as="points">
              <mxPoint x="1000" y="150" />
            </Array>
            <mxPoint x="1000" y="230" as="sourcePoint" />
          </mxGeometry>
        </mxCell>
        <mxCell id="uh68UWqJaUCQt9T-QTS5-60" value="Инструкции" style="edgeLabel;html=1;align=center;verticalAlign=middle;resizable=0;points=[];" parent="uh68UWqJaUCQt9T-QTS5-18" vertex="1" connectable="0">
          <mxGeometry x="0.0193" y="-1" relative="1" as="geometry">
            <mxPoint x="39" y="11" as="offset" />
          </mxGeometry>
        </mxCell>
        <mxCell id="uh68UWqJaUCQt9T-QTS5-20" value="" style="endArrow=classic;html=1;rounded=0;entryX=0;entryY=0.25;entryDx=0;entryDy=0;" parent="1" target="uh68UWqJaUCQt9T-QTS5-59" edge="1">
          <mxGeometry width="50" height="50" relative="1" as="geometry">
            <mxPoint x="840" y="250" as="sourcePoint" />
            <mxPoint x="960" y="250" as="targetPoint" />
          </mxGeometry>
        </mxCell>
        <mxCell id="uh68UWqJaUCQt9T-QTS5-21" value="Аналитические&lt;div&gt;данные&lt;/div&gt;" style="edgeLabel;html=1;align=center;verticalAlign=middle;resizable=0;points=[];" parent="uh68UWqJaUCQt9T-QTS5-20" vertex="1" connectable="0">
          <mxGeometry x="-0.0761" y="-1" relative="1" as="geometry">
            <mxPoint x="2" y="-21" as="offset" />
          </mxGeometry>
        </mxCell>
        <mxCell id="uh68UWqJaUCQt9T-QTS5-22" value="" style="endArrow=classic;html=1;rounded=0;entryX=0;entryY=0.5;entryDx=0;entryDy=0;" parent="1" target="uh68UWqJaUCQt9T-QTS5-59" edge="1">
          <mxGeometry width="50" height="50" relative="1" as="geometry">
            <mxPoint x="840" y="270" as="sourcePoint" />
            <mxPoint x="960" y="290" as="targetPoint" />
          </mxGeometry>
        </mxCell>
        <mxCell id="uh68UWqJaUCQt9T-QTS5-23" value="Данные от&amp;nbsp;&lt;div&gt;пользователя&lt;/div&gt;" style="edgeLabel;html=1;align=center;verticalAlign=middle;resizable=0;points=[];" parent="uh68UWqJaUCQt9T-QTS5-22" vertex="1" connectable="0">
          <mxGeometry x="0.0115" relative="1" as="geometry">
            <mxPoint x="-1" y="20" as="offset" />
          </mxGeometry>
        </mxCell>
        <mxCell id="uh68UWqJaUCQt9T-QTS5-26" style="edgeStyle=orthogonalEdgeStyle;rounded=0;orthogonalLoop=1;jettySize=auto;html=1;exitX=1;exitY=0.5;exitDx=0;exitDy=0;entryX=0;entryY=0.25;entryDx=0;entryDy=0;jumpStyle=none;" parent="1" source="uh68UWqJaUCQt9T-QTS5-59" target="uh68UWqJaUCQt9T-QTS5-62" edge="1">
          <mxGeometry relative="1" as="geometry">
            <Array as="points">
              <mxPoint x="1040" y="275" />
            </Array>
            <mxPoint x="1280" y="250" as="sourcePoint" />
          </mxGeometry>
        </mxCell>
        <mxCell id="uh68UWqJaUCQt9T-QTS5-27" value="Данные в&lt;br&gt;ОБД" style="edgeLabel;html=1;align=center;verticalAlign=middle;resizable=0;points=[];" parent="uh68UWqJaUCQt9T-QTS5-26" vertex="1" connectable="0">
          <mxGeometry x="-0.7571" y="-2" relative="1" as="geometry">
            <mxPoint x="53" y="-32" as="offset" />
          </mxGeometry>
        </mxCell>
        <mxCell id="uh68UWqJaUCQt9T-QTS5-38" style="edgeStyle=orthogonalEdgeStyle;rounded=0;orthogonalLoop=1;jettySize=auto;html=1;entryX=0.5;entryY=1;entryDx=0;entryDy=0;" parent="1" target="uh68UWqJaUCQt9T-QTS5-59" edge="1">
          <mxGeometry relative="1" as="geometry">
            <mxPoint x="1000" y="400" as="sourcePoint" />
            <mxPoint x="1090" y="440" as="targetPoint" />
          </mxGeometry>
        </mxCell>
        <mxCell id="uh68UWqJaUCQt9T-QTS5-61" value="Технический&lt;br&gt;персонал" style="edgeLabel;html=1;align=center;verticalAlign=middle;resizable=0;points=[];" parent="uh68UWqJaUCQt9T-QTS5-38" vertex="1" connectable="0">
          <mxGeometry x="-0.3281" y="2" relative="1" as="geometry">
            <mxPoint x="42" y="-19" as="offset" />
          </mxGeometry>
        </mxCell>
        <mxCell id="uh68UWqJaUCQt9T-QTS5-46" style="edgeStyle=orthogonalEdgeStyle;rounded=0;orthogonalLoop=1;jettySize=auto;html=1;startArrow=classic;startFill=1;endArrow=none;endFill=0;exitX=0;exitY=0.75;exitDx=0;exitDy=0;" parent="1" source="uh68UWqJaUCQt9T-QTS5-62" edge="1">
          <mxGeometry relative="1" as="geometry">
            <mxPoint x="1130" y="370" as="targetPoint" />
            <mxPoint x="1160" y="510" as="sourcePoint" />
            <Array as="points">
              <mxPoint x="1130" y="325" />
            </Array>
          </mxGeometry>
        </mxCell>
        <mxCell id="uh68UWqJaUCQt9T-QTS5-47" value="Запрос к&amp;nbsp;&lt;div&gt;данным&lt;/div&gt;" style="edgeLabel;html=1;align=center;verticalAlign=middle;resizable=0;points=[];" parent="uh68UWqJaUCQt9T-QTS5-46" vertex="1" connectable="0">
          <mxGeometry x="0.209" y="2" relative="1" as="geometry">
            <mxPoint x="-8" y="63" as="offset" />
          </mxGeometry>
        </mxCell>
        <mxCell id="uh68UWqJaUCQt9T-QTS5-59" value="Добавление/&lt;br&gt;изменение&lt;br&gt;данных в БД" style="whiteSpace=wrap;html=1;aspect=fixed;" parent="1" vertex="1">
          <mxGeometry x="960" y="230" width="80" height="80" as="geometry" />
        </mxCell>
        <mxCell id="uh68UWqJaUCQt9T-QTS5-63" style="edgeStyle=orthogonalEdgeStyle;rounded=0;orthogonalLoop=1;jettySize=auto;html=1;startArrow=classic;startFill=1;endArrow=none;endFill=0;exitX=0.5;exitY=1;exitDx=0;exitDy=0;" parent="1" source="uh68UWqJaUCQt9T-QTS5-62" edge="1">
          <mxGeometry relative="1" as="geometry">
            <mxPoint x="1270" y="380" as="targetPoint" />
            <mxPoint x="1240" y="330" as="sourcePoint" />
            <Array as="points">
              <mxPoint x="1269" y="360" />
              <mxPoint x="1270" y="380" />
            </Array>
          </mxGeometry>
        </mxCell>
        <mxCell id="uh68UWqJaUCQt9T-QTS5-64" value="Администратор" style="edgeLabel;html=1;align=center;verticalAlign=middle;resizable=0;points=[];" parent="uh68UWqJaUCQt9T-QTS5-63" vertex="1" connectable="0">
          <mxGeometry x="0.1021" y="2" relative="1" as="geometry">
            <mxPoint x="-2" y="24" as="offset" />
          </mxGeometry>
        </mxCell>
        <mxCell id="uh68UWqJaUCQt9T-QTS5-65" style="edgeStyle=orthogonalEdgeStyle;rounded=0;orthogonalLoop=1;jettySize=auto;html=1;" parent="1" source="uh68UWqJaUCQt9T-QTS5-62" edge="1">
          <mxGeometry relative="1" as="geometry">
            <mxPoint x="1470" y="300" as="targetPoint" />
            <Array as="points">
              <mxPoint x="1360" y="300" />
              <mxPoint x="1360" y="300" />
            </Array>
          </mxGeometry>
        </mxCell>
        <mxCell id="uh68UWqJaUCQt9T-QTS5-66" value="Информационный&lt;br&gt;массив" style="edgeLabel;html=1;align=center;verticalAlign=middle;resizable=0;points=[];" parent="uh68UWqJaUCQt9T-QTS5-65" vertex="1" connectable="0">
          <mxGeometry x="-0.2999" y="1" relative="1" as="geometry">
            <mxPoint x="18" y="-19" as="offset" />
          </mxGeometry>
        </mxCell>
        <mxCell id="uh68UWqJaUCQt9T-QTS5-62" value="Формирование&lt;br&gt;ИМ" style="whiteSpace=wrap;html=1;aspect=fixed;" parent="1" vertex="1">
          <mxGeometry x="1220" y="250.5" width="99" height="99" as="geometry" />
        </mxCell>
      </root>
    </mxGraphModel>
  </diagram>
</mxfile>
